<svg xmlns="http://www.w3.org/2000/svg" version="1.1" xmlns:xlink="http://www.w3.org/1999/xlink" width="512" height="512" x="0" y="0" viewBox="0 0 512 512" style="enable-background:new 0 0 512 512" xml:space="preserve" class="hovered-paths"><g><circle cx="256" cy="256" r="250" fill="#008a94" opacity="1" data-original="#008a94" class="hovered-path"></circle><g fill="#fff"><path d="m272.43 303.858 21.914 21.913a28.713 28.713 0 0 0-2.623 11.976c0 7.701 2.998 14.94 8.446 20.384l57.791 57.791c.006.006.009.013.015.018.338.157 22.879 27.059 45.352 4.579l20.011-20.01c11.266-11.259 11.273-29.506 0-40.772l-4.579-4.581-.009-.008-57.8-57.8c-8.734-8.736-21.715-10.651-32.347-5.81l-21.932-21.931c30.715-46.61 25.595-110.055-15.37-151.018-46.829-46.831-123.047-46.814-169.892.03-46.831 46.831-46.831 123.03 0 169.861 40.782 40.787 104.208 46.241 151.023 15.378zm143.734 89.479-20.011 20.011c-8.734 8.734-19.658 6.596-27.423-.996l46.44-46.437.994.994c7.303 7.306 7.305 19.122 0 26.428zm-62.388-88.817 54.222 54.222-46.439 46.438-54.221-54.223a18.562 18.562 0 0 1-5.474-13.212 18.57 18.57 0 0 1 5.474-13.215l20.011-20.011c3.642-3.642 8.429-5.464 13.213-5.464s9.572 1.824 13.214 5.465zm-33.661-7.123-19.902 19.901-19.481-19.48c3.644-2.88 7.174-5.973 10.537-9.336 3.373-3.373 6.474-6.914 9.361-10.57zM128.577 125.791c42.867-42.867 112.646-42.93 155.55-.03 42.875 42.875 42.862 112.655-.03 155.55-42.875 42.877-112.646 42.872-155.52-.002-42.875-42.877-42.875-112.641 0-155.518z" fill="#ffffff" opacity="1" data-original="#ffffff"></path><path d="M266.704 263.91c33.364-33.364 33.398-87.373.02-120.747-33.327-33.334-87.374-33.354-120.745.021-33.35 33.346-33.369 87.356 0 120.726 33.279 33.279 87.442 33.286 120.725 0zM153.15 150.355c29.376-29.372 76.991-29.433 106.403-.021 29.406 29.403 29.387 76.991-.02 106.405-29.334 29.329-77.054 29.329-106.383 0-29.388-29.391-29.402-76.982 0-106.384z" fill="#ffffff" opacity="1" data-original="#ffffff"></path><path d="M165.252 168.564a5.054 5.054 0 0 0 3.586-1.486c20.693-20.687 54.347-20.695 75.024-.017a5.072 5.072 0 0 0 7.173-7.171c-24.669-24.669-64.669-24.686-89.368.017a5.07 5.07 0 0 0 0 7.171 5.05 5.05 0 0 0 3.585 1.486z" fill="#ffffff" opacity="1" data-original="#ffffff"></path></g></g></svg>